<svg width="195" height="36" viewBox="0 0 195 36" fill="none" xmlns="http://www.w3.org/2000/svg">
<path fill-rule="evenodd" clip-rule="evenodd" d="M0.226562 24.8991C1.0728 24.39 1.95641 23.8758 2.87623 23.3581L4.3476 25.9725C3.45205 26.4766 2.59354 26.9762 1.77314 27.4698L0.226562 24.8991ZM174.139 17.8688C175.975 18.7219 177.81 19.6116 179.645 20.5389L178.292 23.2164C176.487 22.304 174.68 21.4286 172.875 20.5892L174.139 17.8688ZM8.28759 20.4885C10.0472 19.6073 11.9039 18.724 13.8523 17.8461L15.0847 20.5814C13.1725 21.4429 11.3529 22.3086 9.63088 23.1709L8.28759 20.4885ZM19.4598 15.4426C21.2972 14.6935 23.2007 13.9536 25.1668 13.2279L26.2056 16.0423C24.2708 16.7564 22.3986 17.4842 20.5924 18.2206L19.4598 15.4426ZM162.869 13.0776C164.758 13.8074 166.648 14.5738 168.54 15.3779L167.366 18.1388C165.505 17.3478 163.646 16.5939 161.787 15.876L162.869 13.0776ZM30.9509 11.1979C32.8477 10.5657 34.7939 9.94924 36.7869 9.35228L37.6477 12.2261C35.6843 12.8142 33.7673 13.4214 31.8995 14.044L30.9509 11.1979ZM151.326 9.05628C153.257 9.65742 155.192 10.2948 157.129 10.9697L156.142 13.8027C154.237 13.1389 152.334 12.512 150.434 11.9207L151.326 9.05628ZM42.6628 7.6879C44.6005 7.17014 46.5767 6.67244 48.5893 6.19786L49.2778 9.11779C47.2943 9.58551 45.3467 10.076 43.4372 10.5862L42.6628 7.6879ZM139.515 5.80959C141.487 6.28134 143.465 6.78898 145.447 7.33385L144.652 10.2266C142.702 9.69065 140.757 9.19132 138.817 8.72729L139.515 5.80959ZM54.5591 4.88246C56.531 4.4782 58.5339 4.09737 60.5658 3.74257L61.0818 6.69786C59.0792 7.04754 57.1051 7.42289 55.1616 7.82134L54.5591 4.88246ZM127.525 3.35981C129.522 3.69946 131.527 4.07402 133.538 4.48497L132.938 7.42427C130.959 7.02001 128.987 6.65151 127.022 6.31735L127.525 3.35981ZM66.604 2.77957C68.601 2.4912 70.623 2.229 72.6686 1.99526L73.0091 4.97587C70.9934 5.20619 69.0008 5.46458 67.0328 5.74878L66.604 2.77957ZM115.409 1.70509C117.422 1.91368 119.446 2.15597 121.479 2.43353L121.074 5.40596C119.073 5.13284 117.081 4.8944 115.1 4.68912L115.409 1.70509ZM78.7543 1.39178C80.7683 1.22249 82.8027 1.08172 84.8562 0.9715L85.017 3.96719C82.9941 4.07576 80.9899 4.21445 79.0056 4.38124L78.7543 1.39178ZM103.206 0.835237C105.231 0.914941 107.269 1.02697 109.319 1.17303L109.106 4.16545C107.088 4.02167 105.081 3.91139 103.088 3.83291L103.206 0.835237ZM90.9691 0.736942C92.9924 0.690355 95.0323 0.67431 97.0876 0.690677L97.0637 3.69058C95.0399 3.67446 93.0309 3.69026 91.0382 3.73615L90.9691 0.736942ZM189.753 18.6737L194.194 35.4152L177.475 30.8907L189.753 18.6737Z" fill="#294596"/>
</svg>
