<svg width="228" height="32" viewBox="0 0 228 32" fill="none" xmlns="http://www.w3.org/2000/svg">
<path d="M42.5757 8.08445H27.123V1.46375H30.2402C35.3289 1.46375 39.8315 4.08444 42.5757 8.08445Z" fill="#294596"/>
<path d="M25.6567 1.46375V17.1052H15.1063C13.8541 17.1052 12.6285 16.9396 11.4563 16.6362C11.1366 16.5534 10.8169 16.4707 10.5238 16.3603C7.00698 15.2293 4.0763 12.8017 2.18469 9.6017L1.41205 8.11204C0.506208 6.07065 0 3.83617 0 1.46375H25.6567Z" fill="#294596"/>
<path d="M11.8018 18.6215H25.6559V25.2422H24.1372C19.0485 25.2422 14.5459 22.6215 11.8018 18.6215Z" fill="#E31013"/>
<path d="M54.3766 25.2426H27.0947V9.6012H39.2437C40.8423 9.6012 42.3875 9.84947 43.8262 10.346C47.1565 11.4495 50.0073 13.7116 51.8722 16.6909C51.9788 16.8288 52.0587 16.9943 52.1387 17.1598C52.3252 17.4909 52.5117 17.8495 52.6982 18.2081C52.7781 18.346 52.8314 18.5116 52.9113 18.6771C53.8704 20.6357 54.3766 22.8702 54.3766 25.2426Z" fill="#E31013"/>
<path d="M67.6931 15.669V24.9104H63.5103V0H72.7019C75.3928 0 77.5242 0.717243 79.0961 2.17932C80.668 3.64139 81.4673 5.54484 81.4673 7.91726C81.4673 10.3724 80.6947 12.2483 79.1494 13.6276C77.6041 14.9793 75.4461 15.669 72.6486 15.669H67.6931ZM67.6931 12.1655H72.7019C74.1939 12.1655 75.3129 11.8069 76.1122 11.0897C76.8848 10.3724 77.2844 9.32416 77.2844 7.94485C77.2844 6.59312 76.8848 5.51725 76.0855 4.71725C75.2862 3.91725 74.1939 3.50346 72.8085 3.47587H67.6665V12.1655H67.6931Z" fill="#2D2D2D"/>
<path d="M83.7603 15.475C83.7603 13.6543 84.1066 12.0268 84.7993 10.5647C85.492 9.10261 86.4778 7.99916 87.73 7.22674C88.9822 6.45432 90.4209 6.06812 92.0461 6.06812C94.4439 6.06812 96.4154 6.86812 97.9074 8.46812C99.3994 10.0681 100.225 12.2199 100.332 14.8681L100.359 15.8337C100.359 17.6544 100.012 19.2819 99.3461 20.7164C98.6801 22.1509 97.6943 23.2544 96.4421 24.0544C95.1899 24.8544 93.7246 25.2406 92.0727 25.2406C89.5417 25.2406 87.5435 24.3578 86.0249 22.6199C84.5062 20.8819 83.7603 18.5647 83.7603 15.6681V15.475ZM87.7833 15.8337C87.7833 17.7371 88.1563 19.2268 88.9289 20.3026C89.7015 21.3785 90.7406 21.9302 92.0994 21.9302C93.4581 21.9302 94.4972 21.3785 95.2698 20.2751C96.0158 19.1716 96.3888 17.5716 96.3888 15.475C96.3888 13.5992 95.9892 12.1371 95.2165 11.0336C94.4439 9.93019 93.3782 9.37847 92.0461 9.37847C90.7406 9.37847 89.7015 9.9302 88.9289 11.0061C88.1829 12.0819 87.7833 13.6819 87.7833 15.8337Z" fill="#2D2D2D"/>
<path d="M111.121 21.9302C112.133 21.9302 112.959 21.6268 113.625 21.0199C114.291 20.413 114.638 19.6681 114.691 18.7854H118.474C118.421 19.944 118.074 21.0199 117.435 22.013C116.796 23.0061 115.916 23.8061 114.797 24.3854C113.678 24.9647 112.48 25.2682 111.201 25.2682C108.696 25.2682 106.725 24.4406 105.259 22.7578C103.794 21.075 103.075 18.7578 103.075 15.8061V15.3923C103.075 12.5785 103.794 10.3164 105.259 8.63364C106.725 6.95088 108.696 6.0957 111.201 6.0957C113.332 6.0957 115.064 6.73019 116.396 8.02674C117.728 9.29571 118.447 11.0061 118.501 13.075H114.717C114.664 12.0268 114.318 11.144 113.678 10.4543C113.012 9.76468 112.186 9.43364 111.174 9.43364C109.869 9.43364 108.883 9.93019 108.163 10.8957C107.471 11.8612 107.098 13.3509 107.098 15.3371V15.9992C107.098 18.013 107.444 19.5026 108.137 20.4957C108.776 21.4337 109.789 21.9302 111.121 21.9302Z" fill="#2D2D2D"/>
<path d="M128.811 21.9302C129.824 21.9302 130.65 21.6268 131.316 21.0199C131.982 20.413 132.328 19.6681 132.381 18.7854H136.165C136.111 19.944 135.765 21.0199 135.125 22.013C134.486 23.0061 133.607 23.8061 132.488 24.3854C131.369 24.9647 130.17 25.2682 128.891 25.2682C126.387 25.2682 124.415 24.4406 122.95 22.7578C121.484 21.075 120.765 18.7578 120.765 15.8061V15.3923C120.765 12.5785 121.484 10.3164 122.95 8.63364C124.415 6.95088 126.387 6.0957 128.891 6.0957C131.023 6.0957 132.754 6.73019 134.086 8.02674C135.419 9.29571 136.138 11.0061 136.191 13.075H132.408C132.355 12.0268 132.008 11.144 131.369 10.4543C130.703 9.76468 129.877 9.43364 128.864 9.43364C127.559 9.43364 126.573 9.93019 125.854 10.8957C125.161 11.8612 124.788 13.3509 124.788 15.3371V15.9992C124.788 18.013 125.135 19.5026 125.827 20.4957C126.52 21.4888 127.506 21.9302 128.811 21.9302Z" fill="#2D2D2D"/>
<path d="M146.688 14.2345H143.837V24.9104H139.681V0H143.837V10.4552H146.128L153.215 0H158.33L150.071 11.9173L159.05 24.8828H154.041L146.688 14.2345Z" fill="#2D2D2D"/>
<path d="M171.652 24.8827C171.466 24.5241 171.333 23.9447 171.199 23.1447C169.921 24.5241 168.349 25.2137 166.51 25.2137C164.725 25.2137 163.26 24.6896 162.114 23.6137C160.969 22.5654 160.409 21.2413 160.409 19.6689C160.409 17.7103 161.129 16.193 162.541 15.1171C163.953 14.0689 165.977 13.5447 168.615 13.5447H171.066V12.3309C171.066 11.3654 170.8 10.6206 170.294 10.0413C169.787 9.46196 168.988 9.18609 167.922 9.18609C167.017 9.18609 166.271 9.43437 165.684 9.90334C165.098 10.3723 164.805 10.9792 164.805 11.6964H160.782C160.782 10.6758 161.102 9.73782 161.768 8.85506C162.407 7.9723 163.313 7.28264 164.406 6.78609C165.525 6.28954 166.777 6.04126 168.136 6.04126C170.24 6.04126 171.892 6.59299 173.144 7.66885C174.397 8.74471 175.036 10.2895 175.063 12.2482V20.5792C175.063 22.2344 175.276 23.5585 175.729 24.5516V24.8551H171.652V24.8827ZM167.256 21.9034C168.056 21.9034 168.802 21.7103 169.494 21.2965C170.187 20.9103 170.72 20.3585 171.066 19.6965V16.2206H168.908C167.416 16.2206 166.297 16.4965 165.551 17.0206C164.805 17.5447 164.432 18.3172 164.432 19.2827C164.432 20.0827 164.699 20.7172 165.205 21.1861C165.711 21.6551 166.377 21.9034 167.256 21.9034Z" fill="#2D2D2D"/>
<path d="M194.938 15.8344C194.938 18.7034 194.299 20.9654 193.046 22.6758C191.794 24.3861 190.116 25.2413 187.984 25.2413C186.013 25.2413 184.468 24.5792 183.269 23.2275V31.9999H179.246V6.39988H182.949L183.109 8.27575C184.281 6.78609 185.88 6.04126 187.904 6.04126C190.089 6.04126 191.794 6.86885 193.02 8.55161C194.245 10.2344 194.885 12.5792 194.885 15.5585V15.8344H194.938ZM190.942 15.4758C190.942 13.6275 190.595 12.1654 189.876 11.0895C189.157 10.0137 188.144 9.46196 186.839 9.46196C185.187 9.46196 184.015 10.1516 183.295 11.5585V19.7792C184.015 21.2137 185.214 21.931 186.865 21.931C188.144 21.931 189.13 21.4068 189.849 20.3309C190.569 19.2551 190.942 17.6275 190.942 15.4758Z" fill="#2D2D2D"/>
<path d="M210.231 9.7376H202.478V24.8825H198.481V6.39966H210.231V9.7376Z" fill="#2D2D2D"/>
<path d="M211.401 15.475C211.401 13.6543 211.748 12.0268 212.44 10.5647C213.133 9.10261 214.119 7.99916 215.371 7.22674C216.623 6.45432 218.062 6.06812 219.687 6.06812C222.085 6.06812 224.057 6.86812 225.549 8.46812C227.041 10.0681 227.866 12.2199 227.973 14.8681L228 15.8337C228 17.6544 227.653 19.2819 226.987 20.7164C226.321 22.1509 225.335 23.2544 224.083 24.0544C222.831 24.8544 221.366 25.2406 219.714 25.2406C217.183 25.2406 215.185 24.3578 213.666 22.6199C212.147 20.8819 211.401 18.5647 211.401 15.6681V15.475ZM215.424 15.8337C215.424 17.7371 215.797 19.2268 216.57 20.3026C217.343 21.3785 218.382 21.9302 219.74 21.9302C221.099 21.9302 222.138 21.3785 222.911 20.2751C223.657 19.1716 224.03 17.5716 224.03 15.475C224.03 13.5992 223.63 12.1371 222.858 11.0336C222.085 9.93019 221.019 9.37847 219.687 9.37847C218.382 9.37847 217.343 9.9302 216.57 11.0061C215.797 12.0819 215.424 13.6819 215.424 15.8337Z" fill="#2D2D2D"/>
</svg>
