<svg width="256" height="47" viewBox="0 0 256 47" fill="none" xmlns="http://www.w3.org/2000/svg">
<path d="M47.6596 9.07742H30.3618V1.64368H33.8512C39.5476 1.64368 44.5878 4.5862 47.6596 9.07742Z" fill="white"/>
<path d="M28.7203 1.64355V19.2058H16.9101C15.5084 19.2058 14.1365 19.0199 12.8242 18.6792C12.4664 18.5863 12.1085 18.4934 11.7804 18.3695C7.84366 17.0995 4.56304 14.3738 2.44555 10.7809L1.58066 9.10827C0.566652 6.8162 0 4.30731 0 1.64355H28.7203Z" fill="white"/>
<path d="M13.2119 20.9082H28.7203V28.3419H27.0203C21.324 28.3419 16.2838 25.3994 13.2119 20.9082Z" fill="white"/>
<path d="M60.8701 28.3425H30.3306V10.7803H43.9302C45.7196 10.7803 47.4494 11.059 49.0599 11.6166C52.7879 12.8555 55.979 15.3954 58.0667 18.7406C58.186 18.8954 58.2755 19.0813 58.3649 19.2671C58.5737 19.6388 58.7825 20.0415 58.9912 20.4441C59.0807 20.599 59.1404 20.7849 59.2298 20.9707C60.3035 23.1698 60.8701 25.6787 60.8701 28.3425Z" fill="white"/>
<path d="M75.7756 17.5932V27.9695H71.0933V0H81.3825C84.3947 0 86.7806 0.805322 88.5402 2.44694C90.2998 4.08856 91.1945 6.22576 91.1945 8.88952C91.1945 11.6462 90.3296 13.7524 88.5998 15.3011C86.8701 16.8188 84.4543 17.5932 81.3228 17.5932H75.7756ZM75.7756 13.6595H81.3825C83.0526 13.6595 84.3052 13.2568 85.1999 12.4515C86.0648 11.6462 86.5122 10.4692 86.5122 8.92049C86.5122 7.40277 86.0648 6.19479 85.1701 5.29654C84.2754 4.3983 83.0526 3.93369 81.5018 3.90272H75.7458V13.6595H75.7756Z" fill="white"/>
<path d="M93.7607 17.3756C93.7607 15.3313 94.1484 13.5038 94.9239 11.8622C95.6993 10.2206 96.8028 8.98165 98.2045 8.11438C99.6062 7.24711 101.217 6.81348 103.036 6.81348C105.72 6.81348 107.927 7.71172 109.597 9.50821C111.267 11.3047 112.192 13.7207 112.311 16.6942L112.341 17.7783C112.341 19.8225 111.953 21.65 111.208 23.2606C110.462 24.8713 109.359 26.1102 107.957 27.0085C106.555 27.9067 104.915 28.3404 103.066 28.3404C100.233 28.3404 97.9957 27.3492 96.2958 25.3978C94.5958 23.4465 93.7607 20.8447 93.7607 17.5924V17.3756ZM98.2641 17.7783C98.2641 19.9155 98.6817 21.588 99.5466 22.796C100.411 24.004 101.575 24.6235 103.096 24.6235C104.617 24.6235 105.78 24.004 106.645 22.7651C107.48 21.5261 107.897 19.7296 107.897 17.3756C107.897 15.2694 107.45 13.6277 106.585 12.3888C105.72 11.1498 104.527 10.5303 103.036 10.5303C101.575 10.5303 100.411 11.1498 99.5466 12.3578C98.7115 13.5658 98.2641 15.3623 98.2641 17.7783Z" fill="white"/>
<path d="M124.388 24.6238C125.521 24.6238 126.446 24.283 127.192 23.6016C127.937 22.9202 128.325 22.0839 128.385 21.0927H132.62C132.56 22.3936 132.172 23.6016 131.456 24.7167C130.741 25.8317 129.756 26.73 128.504 27.3804C127.251 28.0309 125.909 28.3716 124.478 28.3716C121.674 28.3716 119.467 27.4424 117.827 25.553C116.187 23.6636 115.381 21.0618 115.381 17.7475V17.2829C115.381 14.1236 116.187 11.5837 117.827 9.69433C119.467 7.80492 121.674 6.84473 124.478 6.84473C126.864 6.84473 128.802 7.55713 130.293 9.0129C131.784 10.4377 132.59 12.3581 132.649 14.6811H128.414C128.355 13.5041 127.967 12.513 127.251 11.7386C126.506 10.9643 125.581 10.5926 124.448 10.5926C122.986 10.5926 121.883 11.1501 121.078 12.2342C120.302 13.3183 119.885 14.9909 119.885 17.221V17.9644C119.885 20.2255 120.272 21.8981 121.048 23.0131C121.764 24.0662 122.897 24.6238 124.388 24.6238Z" fill="white"/>
<path d="M144.191 24.6238C145.325 24.6238 146.249 24.283 146.995 23.6016C147.74 22.9202 148.128 22.0839 148.188 21.0927H152.423C152.363 22.3936 151.975 23.6016 151.26 24.7167C150.544 25.8317 149.56 26.73 148.307 27.3804C147.054 28.0309 145.712 28.3716 144.281 28.3716C141.477 28.3716 139.27 27.4424 137.63 25.553C135.99 23.6636 135.185 21.0618 135.185 17.7475V17.2829C135.185 14.1236 135.99 11.5837 137.63 9.69433C139.27 7.80492 141.477 6.84473 144.281 6.84473C146.667 6.84473 148.605 7.55713 150.097 9.0129C151.588 10.4377 152.393 12.3581 152.453 14.6811H148.218C148.158 13.5041 147.77 12.513 147.054 11.7386C146.309 10.9643 145.384 10.5926 144.251 10.5926C142.79 10.5926 141.686 11.1501 140.881 12.2342C140.106 13.3183 139.688 14.9909 139.688 17.221V17.9644C139.688 20.2255 140.076 21.8981 140.851 23.0131C141.627 24.1282 142.73 24.6238 144.191 24.6238Z" fill="white"/>
<path d="M164.202 15.9825H161.011V27.9695H156.358V0H161.011V11.7391H163.576L171.509 0H177.235L167.99 13.3807L178.04 27.9385H172.433L164.202 15.9825Z" fill="white"/>
<path d="M192.149 27.9383C191.94 27.5357 191.791 26.8852 191.642 25.987C190.21 27.5357 188.45 28.31 186.393 28.31C184.394 28.31 182.754 27.7215 181.472 26.5135C180.189 25.3365 179.563 23.8498 179.563 22.0843C179.563 19.8851 180.368 18.1815 181.949 16.9736C183.53 15.7966 185.796 15.2081 188.749 15.2081H191.493V13.8452C191.493 12.7611 191.194 11.9248 190.628 11.2744C190.061 10.6239 189.166 10.3142 187.973 10.3142C186.959 10.3142 186.124 10.5929 185.468 11.1195C184.812 11.646 184.484 12.3275 184.484 13.1328H179.981C179.981 11.9868 180.338 10.9336 181.084 9.94248C181.8 8.95132 182.814 8.17697 184.037 7.61944C185.289 7.06191 186.691 6.78314 188.212 6.78314C190.568 6.78314 192.417 7.40262 193.819 8.6106C195.221 9.81859 195.936 11.5531 195.966 13.7523V23.1064C195.966 24.9648 196.205 26.4516 196.712 27.5666V27.9074H192.149V27.9383ZM187.228 24.5932C188.122 24.5932 188.957 24.3763 189.733 23.9117C190.508 23.4781 191.105 22.8586 191.493 22.1152V18.2125H189.077C187.407 18.2125 186.154 18.5223 185.319 19.1108C184.484 19.6993 184.066 20.5665 184.066 21.6506C184.066 22.5489 184.365 23.2613 184.931 23.7878C185.498 24.3144 186.244 24.5932 187.228 24.5932Z" fill="white"/>
<path d="M218.215 17.7789C218.215 21.0002 217.499 23.54 216.097 25.4604C214.695 27.3808 212.817 28.341 210.431 28.341C208.224 28.341 206.494 27.5976 205.152 26.0799V35.9296H200.648V7.1858H204.794L204.973 9.29203C206.285 7.61944 208.075 6.78314 210.341 6.78314C212.787 6.78314 214.695 7.71236 216.067 9.60177C217.439 11.4912 218.155 14.124 218.155 17.4691V17.7789H218.215ZM213.741 17.3762C213.741 15.301 213.353 13.6594 212.548 12.4514C211.743 11.2434 210.61 10.6239 209.148 10.6239C207.299 10.6239 205.987 11.3983 205.182 12.9779V22.2082C205.987 23.8188 207.329 24.6241 209.178 24.6241C210.61 24.6241 211.713 24.0356 212.518 22.8276C213.324 21.6197 213.741 19.7922 213.741 17.3762Z" fill="white"/>
<path d="M235.333 10.9334H226.654V27.9381H222.181V7.18555H235.333V10.9334Z" fill="white"/>
<path d="M236.645 17.3756C236.645 15.3313 237.032 13.5038 237.808 11.8622C238.583 10.2206 239.687 8.98165 241.088 8.11438C242.49 7.24711 244.1 6.81348 245.92 6.81348C248.604 6.81348 250.811 7.71172 252.481 9.50821C254.151 11.3047 255.076 13.7207 255.195 16.6942L255.225 17.7783C255.225 19.8225 254.837 21.65 254.091 23.2606C253.346 24.8713 252.242 26.1102 250.841 27.0085C249.439 27.9067 247.799 28.3404 245.95 28.3404C243.116 28.3404 240.88 27.3492 239.18 25.3978C237.48 23.4465 236.645 20.8447 236.645 17.5924V17.3756ZM241.148 17.7783C241.148 19.9155 241.565 21.588 242.43 22.796C243.295 24.004 244.458 24.6235 245.979 24.6235C247.5 24.6235 248.664 24.004 249.528 22.7651C250.363 21.5261 250.781 19.7296 250.781 17.3756C250.781 15.2694 250.334 13.6277 249.469 12.3888C248.604 11.1498 247.411 10.5303 245.92 10.5303C244.458 10.5303 243.295 11.1498 242.43 12.3578C241.565 13.5658 241.148 15.3623 241.148 17.7783Z" fill="white"/>
<path d="M77.851 37.0771V37.8486H74.599V37.0771H77.851ZM78.6615 37.0771V44.1865H77.7191V37.0771H78.6615ZM74.2767 37.0771H75.2142L75.0531 40.5586C75.0303 41.0599 74.9913 41.5075 74.9359 41.9014C74.8838 42.292 74.809 42.6322 74.7113 42.9219C74.6137 43.2083 74.4867 43.446 74.3305 43.6348C74.1742 43.8203 73.9822 43.9587 73.7543 44.0498C73.5297 44.141 73.2595 44.1865 72.9437 44.1865H72.6898V43.4199L72.8851 43.4053C73.0674 43.3923 73.2237 43.3516 73.3539 43.2832C73.4874 43.2116 73.5997 43.1042 73.6908 42.9609C73.7852 42.8177 73.8617 42.6322 73.9203 42.4043C73.9789 42.1764 74.0245 41.8981 74.057 41.5693C74.0928 41.2373 74.1205 40.8499 74.14 40.4072L74.2767 37.0771ZM82.8848 41.6035V41.4912C82.8848 41.1104 82.9401 40.7572 83.0508 40.4316C83.1614 40.1029 83.321 39.818 83.5293 39.5771C83.7376 39.333 83.9899 39.1442 84.2861 39.0107C84.5823 38.874 84.9144 38.8057 85.2822 38.8057C85.6533 38.8057 85.987 38.874 86.2832 39.0107C86.5827 39.1442 86.8366 39.333 87.0449 39.5771C87.2565 39.818 87.4176 40.1029 87.5283 40.4316C87.639 40.7572 87.6943 41.1104 87.6943 41.4912V41.6035C87.6943 41.9844 87.639 42.3376 87.5283 42.6631C87.4176 42.9886 87.2565 43.2734 87.0449 43.5176C86.8366 43.7585 86.5843 43.9473 86.2881 44.084C85.9951 44.2174 85.6631 44.2842 85.292 44.2842C84.9209 44.2842 84.5872 44.2174 84.291 44.084C83.9948 43.9473 83.7409 43.7585 83.5293 43.5176C83.321 43.2734 83.1614 42.9886 83.0508 42.6631C82.9401 42.3376 82.8848 41.9844 82.8848 41.6035ZM83.7881 41.4912V41.6035C83.7881 41.8672 83.819 42.1162 83.8808 42.3506C83.9427 42.5817 84.0355 42.7868 84.1592 42.9658C84.2861 43.1449 84.444 43.2865 84.6328 43.3906C84.8216 43.4915 85.0413 43.542 85.292 43.542C85.5394 43.542 85.7558 43.4915 85.9414 43.3906C86.1302 43.2865 86.2864 43.1449 86.4101 42.9658C86.5338 42.7868 86.6266 42.5817 86.6885 42.3506C86.7536 42.1162 86.7861 41.8672 86.7861 41.6035V41.4912C86.7861 41.2308 86.7536 40.985 86.6885 40.7539C86.6266 40.5195 86.5322 40.3128 86.4053 40.1338C86.2816 39.9515 86.1253 39.8083 85.9365 39.7041C85.751 39.5999 85.5329 39.5479 85.2822 39.5479C85.0348 39.5479 84.8167 39.5999 84.6279 39.7041C84.4424 39.8083 84.2861 39.9515 84.1592 40.1338C84.0355 40.3128 83.9427 40.5195 83.8808 40.7539C83.819 40.985 83.7881 41.2308 83.7881 41.4912ZM95.1402 38.9033V39.6504H92.6988V44.1865H91.7955V38.9033H95.1402ZM99.8029 42.7559L102.239 38.9033H103.148V44.1865H102.239V40.334L99.8029 44.1865H98.9045V38.9033H99.8029V42.7559ZM109.612 43.542C109.827 43.542 110.026 43.498 110.208 43.4102C110.39 43.3223 110.54 43.2018 110.657 43.0488C110.774 42.8926 110.841 42.7152 110.857 42.5166H111.717C111.7 42.8291 111.595 43.1204 111.399 43.3906C111.207 43.6576 110.955 43.874 110.642 44.04C110.33 44.2028 109.986 44.2842 109.612 44.2842C109.215 44.2842 108.868 44.2142 108.572 44.0742C108.279 43.9342 108.035 43.7422 107.84 43.498C107.648 43.2539 107.503 42.974 107.405 42.6582C107.311 42.3392 107.263 42.0023 107.263 41.6475V41.4424C107.263 41.0876 107.311 40.7523 107.405 40.4365C107.503 40.1175 107.648 39.8359 107.84 39.5918C108.035 39.3477 108.279 39.1556 108.572 39.0156C108.868 38.8757 109.215 38.8057 109.612 38.8057C110.026 38.8057 110.387 38.8903 110.696 39.0596C111.005 39.2256 111.248 39.4535 111.424 39.7432C111.603 40.0296 111.7 40.3551 111.717 40.7197H110.857C110.841 40.5016 110.779 40.3047 110.672 40.1289C110.568 39.9531 110.424 39.8132 110.242 39.709C110.063 39.6016 109.853 39.5479 109.612 39.5479C109.335 39.5479 109.103 39.6032 108.914 39.7139C108.728 39.8213 108.58 39.9678 108.47 40.1533C108.362 40.3356 108.284 40.5391 108.235 40.7637C108.19 40.985 108.167 41.2113 108.167 41.4424V41.6475C108.167 41.8786 108.19 42.1064 108.235 42.3311C108.281 42.5557 108.357 42.7591 108.465 42.9414C108.575 43.1237 108.723 43.2702 108.909 43.3809C109.098 43.4883 109.332 43.542 109.612 43.542ZM117.786 38.9033V44.1865H116.877V38.9033H117.786ZM119.558 38.9033V39.6357H115.139V38.9033H119.558ZM124.323 42.7559L126.76 38.9033H127.668V44.1865H126.76V40.334L124.323 44.1865H123.425V38.9033H124.323V42.7559ZM136.003 38.9033V44.1865H135.099V38.9033H136.003ZM135.695 41.3301V42.0723C135.513 42.1406 135.327 42.2025 135.138 42.2578C134.953 42.3099 134.756 42.3522 134.547 42.3848C134.342 42.4141 134.119 42.4287 133.879 42.4287C133.462 42.4287 133.101 42.3571 132.795 42.2139C132.489 42.0674 132.253 41.8477 132.087 41.5547C131.92 41.2585 131.837 40.8857 131.837 40.4365V38.8936H132.741V40.4365C132.741 40.7295 132.785 40.9671 132.873 41.1494C132.961 41.3317 133.089 41.4668 133.258 41.5547C133.428 41.6393 133.634 41.6816 133.879 41.6816C134.113 41.6816 134.333 41.667 134.538 41.6377C134.746 41.6051 134.945 41.5628 135.133 41.5107C135.325 41.4587 135.513 41.3984 135.695 41.3301ZM142.55 44.2842C142.182 44.2842 141.848 44.2223 141.549 44.0986C141.253 43.9717 140.997 43.7943 140.782 43.5664C140.571 43.3385 140.408 43.0684 140.294 42.7559C140.18 42.4434 140.123 42.1016 140.123 41.7305V41.5254C140.123 41.0957 140.187 40.7132 140.314 40.3779C140.441 40.0394 140.613 39.7529 140.831 39.5186C141.049 39.2842 141.297 39.1068 141.573 38.9863C141.85 38.8659 142.137 38.8057 142.433 38.8057C142.81 38.8057 143.136 38.8708 143.409 39.001C143.686 39.1312 143.912 39.3135 144.088 39.5479C144.264 39.779 144.394 40.0524 144.479 40.3682C144.563 40.6807 144.606 41.0225 144.606 41.3936V41.7988H140.66V41.0615H143.702V40.9932C143.689 40.7588 143.64 40.5309 143.556 40.3096C143.474 40.0882 143.344 39.9059 143.165 39.7627C142.986 39.6195 142.742 39.5479 142.433 39.5479C142.228 39.5479 142.039 39.5918 141.866 39.6797C141.694 39.7643 141.546 39.8913 141.422 40.0605C141.298 40.2298 141.202 40.4365 141.134 40.6807C141.066 40.9248 141.031 41.2064 141.031 41.5254V41.7305C141.031 41.9811 141.066 42.2171 141.134 42.4385C141.206 42.6566 141.308 42.8486 141.442 43.0146C141.578 43.1807 141.743 43.3109 141.935 43.4053C142.13 43.4997 142.351 43.5469 142.599 43.5469C142.918 43.5469 143.188 43.4818 143.409 43.3516C143.631 43.2214 143.824 43.0472 143.99 42.8291L144.537 43.2637C144.423 43.4362 144.279 43.6006 144.103 43.7568C143.927 43.9131 143.71 44.04 143.453 44.1377C143.199 44.2354 142.898 44.2842 142.55 44.2842ZM150.675 43.542C150.889 43.542 151.088 43.498 151.27 43.4102C151.453 43.3223 151.602 43.2018 151.72 43.0488C151.837 42.8926 151.903 42.7152 151.92 42.5166H152.779C152.763 42.8291 152.657 43.1204 152.462 43.3906C152.27 43.6576 152.017 43.874 151.705 44.04C151.392 44.2028 151.049 44.2842 150.675 44.2842C150.277 44.2842 149.931 44.2142 149.635 44.0742C149.342 43.9342 149.097 43.7422 148.902 43.498C148.71 43.2539 148.565 42.974 148.468 42.6582C148.373 42.3392 148.326 42.0023 148.326 41.6475V41.4424C148.326 41.0876 148.373 40.7523 148.468 40.4365C148.565 40.1175 148.71 39.8359 148.902 39.5918C149.097 39.3477 149.342 39.1556 149.635 39.0156C149.931 38.8757 150.277 38.8057 150.675 38.8057C151.088 38.8057 151.449 38.8903 151.759 39.0596C152.068 39.2256 152.31 39.4535 152.486 39.7432C152.665 40.0296 152.763 40.3551 152.779 40.7197H151.92C151.903 40.5016 151.842 40.3047 151.734 40.1289C151.63 39.9531 151.487 39.8132 151.304 39.709C151.125 39.6016 150.915 39.5479 150.675 39.5479C150.398 39.5479 150.165 39.6032 149.976 39.7139C149.791 39.8213 149.643 39.9678 149.532 40.1533C149.425 40.3356 149.346 40.5391 149.298 40.7637C149.252 40.985 149.229 41.2113 149.229 41.4424V41.6475C149.229 41.8786 149.252 42.1064 149.298 42.3311C149.343 42.5557 149.42 42.7591 149.527 42.9414C149.638 43.1237 149.786 43.2702 149.971 43.3809C150.16 43.4883 150.395 43.542 150.675 43.542ZM157.676 38.9033V44.1865H156.773V38.9033H157.676ZM161.143 38.9033L158.638 41.9307H157.373L157.237 41.1396H158.272L160.044 38.9033H161.143ZM160.171 44.1865L158.228 41.7939L158.809 41.1396L161.319 44.1865H160.171ZM168.12 43.2832V40.5635C168.12 40.3551 168.078 40.1745 167.993 40.0215C167.912 39.8652 167.788 39.7448 167.622 39.6602C167.456 39.5755 167.251 39.5332 167.007 39.5332C166.779 39.5332 166.579 39.5723 166.406 39.6504C166.237 39.7285 166.104 39.8311 166.006 39.958C165.911 40.085 165.864 40.2217 165.864 40.3682H164.961C164.961 40.1794 165.01 39.9922 165.107 39.8066C165.205 39.6211 165.345 39.4535 165.527 39.3037C165.713 39.1507 165.934 39.0303 166.191 38.9424C166.452 38.8512 166.742 38.8057 167.061 38.8057C167.445 38.8057 167.783 38.8708 168.076 39.001C168.372 39.1312 168.604 39.3281 168.77 39.5918C168.939 39.8522 169.023 40.1794 169.023 40.5732V43.0342C169.023 43.21 169.038 43.3971 169.067 43.5957C169.1 43.7943 169.147 43.9652 169.209 44.1084V44.1865H168.267C168.221 44.0824 168.185 43.944 168.159 43.7715C168.133 43.5957 168.12 43.4329 168.12 43.2832ZM168.276 40.9834L168.286 41.6182H167.373C167.116 41.6182 166.886 41.6393 166.685 41.6816C166.483 41.7207 166.313 41.7809 166.177 41.8623C166.04 41.9437 165.936 42.0462 165.864 42.1699C165.793 42.2904 165.757 42.432 165.757 42.5947C165.757 42.7607 165.794 42.9121 165.869 43.0488C165.944 43.1855 166.056 43.2946 166.206 43.376C166.359 43.4541 166.546 43.4932 166.768 43.4932C167.044 43.4932 167.288 43.4346 167.5 43.3174C167.712 43.2002 167.879 43.057 168.003 42.8877C168.13 42.7184 168.198 42.554 168.208 42.3945L168.594 42.8291C168.571 42.9658 168.509 43.1172 168.408 43.2832C168.307 43.4492 168.172 43.6087 168.003 43.7617C167.837 43.9115 167.638 44.0368 167.407 44.1377C167.179 44.2354 166.922 44.2842 166.636 44.2842C166.278 44.2842 165.964 44.2142 165.693 44.0742C165.426 43.9342 165.218 43.7471 165.068 43.5127C164.922 43.2751 164.849 43.0098 164.849 42.7168C164.849 42.4336 164.904 42.1846 165.015 41.9697C165.125 41.7516 165.285 41.571 165.493 41.4277C165.701 41.2812 165.952 41.1706 166.245 41.0957C166.538 41.0208 166.865 40.9834 167.227 40.9834H168.276ZM174.414 41.667H175.39L173.862 44.1865H172.885L174.414 41.667ZM175.171 38.9033H177.378V44.1865H176.474V39.6357H175.171C174.913 39.6357 174.703 39.6797 174.541 39.7676C174.378 39.8522 174.259 39.9629 174.184 40.0996C174.109 40.2363 174.072 40.3779 174.072 40.5244C174.072 40.6676 174.106 40.806 174.174 40.9395C174.243 41.0697 174.35 41.1771 174.497 41.2617C174.643 41.3464 174.832 41.3887 175.063 41.3887H176.718V42.1309H175.063C174.76 42.1309 174.492 42.0902 174.257 42.0088C174.023 41.9274 173.824 41.8151 173.662 41.6719C173.499 41.5254 173.375 41.3545 173.291 41.1592C173.206 40.9606 173.164 40.7458 173.164 40.5146C173.164 40.2835 173.208 40.0703 173.296 39.875C173.387 39.6797 173.517 39.5088 173.686 39.3623C173.859 39.2158 174.069 39.1035 174.316 39.0254C174.567 38.944 174.851 38.9033 175.171 38.9033ZM188.095 38.9033V44.1865H187.191V38.9033H188.095ZM191.561 38.9033L189.056 41.9307H187.792L187.655 41.1396H188.69L190.463 38.9033H191.561ZM190.59 44.1865L188.646 41.7939L189.227 41.1396L191.737 44.1865H190.59ZM195.077 41.6035V41.4912C195.077 41.1104 195.132 40.7572 195.243 40.4316C195.353 40.1029 195.513 39.818 195.721 39.5771C195.929 39.333 196.182 39.1442 196.478 39.0107C196.774 38.874 197.106 38.8057 197.474 38.8057C197.845 38.8057 198.179 38.874 198.475 39.0107C198.774 39.1442 199.028 39.333 199.237 39.5771C199.448 39.818 199.609 40.1029 199.72 40.4316C199.831 40.7572 199.886 41.1104 199.886 41.4912V41.6035C199.886 41.9844 199.831 42.3376 199.72 42.6631C199.609 42.9886 199.448 43.2734 199.237 43.5176C199.028 43.7585 198.776 43.9473 198.48 44.084C198.187 44.2174 197.855 44.2842 197.484 44.2842C197.113 44.2842 196.779 44.2174 196.483 44.084C196.187 43.9473 195.933 43.7585 195.721 43.5176C195.513 43.2734 195.353 42.9886 195.243 42.6631C195.132 42.3376 195.077 41.9844 195.077 41.6035ZM195.98 41.4912V41.6035C195.98 41.8672 196.011 42.1162 196.073 42.3506C196.134 42.5817 196.227 42.7868 196.351 42.9658C196.478 43.1449 196.636 43.2865 196.825 43.3906C197.013 43.4915 197.233 43.542 197.484 43.542C197.731 43.542 197.948 43.4915 198.133 43.3906C198.322 43.2865 198.478 43.1449 198.602 42.9658C198.726 42.7868 198.818 42.5817 198.88 42.3506C198.945 42.1162 198.978 41.8672 198.978 41.6035V41.4912C198.978 41.2308 198.945 40.985 198.88 40.7539C198.818 40.5195 198.724 40.3128 198.597 40.1338C198.473 39.9515 198.317 39.8083 198.128 39.7041C197.943 39.5999 197.725 39.5479 197.474 39.5479C197.227 39.5479 197.009 39.5999 196.82 39.7041C196.634 39.8083 196.478 39.9515 196.351 40.1338C196.227 40.3128 196.134 40.5195 196.073 40.7539C196.011 40.985 195.98 41.2308 195.98 41.4912ZM206.956 42.9854L208.753 38.9033H209.622L207.269 44.1865H206.644L204.3 38.9033H205.169L206.956 42.9854ZM204.905 38.9033V44.1865H204.002V38.9033H204.905ZM208.978 44.1865V38.9033H209.886V44.1865H208.978ZM217.761 38.9033V39.6504H215.09V38.9033H217.761ZM215.222 38.9033V44.1865H214.319V38.9033H215.222ZM218.562 38.9033V44.1865H217.654V38.9033H218.562ZM226.028 43.2832V40.5635C226.028 40.3551 225.985 40.1745 225.901 40.0215C225.819 39.8652 225.695 39.7448 225.529 39.6602C225.363 39.5755 225.158 39.5332 224.914 39.5332C224.686 39.5332 224.486 39.5723 224.314 39.6504C224.144 39.7285 224.011 39.8311 223.913 39.958C223.819 40.085 223.772 40.2217 223.772 40.3682H222.868C222.868 40.1794 222.917 39.9922 223.015 39.8066C223.112 39.6211 223.252 39.4535 223.435 39.3037C223.62 39.1507 223.842 39.0303 224.099 38.9424C224.359 38.8512 224.649 38.8057 224.968 38.8057C225.352 38.8057 225.691 38.8708 225.984 39.001C226.28 39.1312 226.511 39.3281 226.677 39.5918C226.846 39.8522 226.931 40.1794 226.931 40.5732V43.0342C226.931 43.21 226.945 43.3971 226.975 43.5957C227.007 43.7943 227.055 43.9652 227.116 44.1084V44.1865H226.174C226.128 44.0824 226.093 43.944 226.067 43.7715C226.041 43.5957 226.028 43.4329 226.028 43.2832ZM226.184 40.9834L226.194 41.6182H225.28C225.023 41.6182 224.794 41.6393 224.592 41.6816C224.39 41.7207 224.221 41.7809 224.084 41.8623C223.947 41.9437 223.843 42.0462 223.772 42.1699C223.7 42.2904 223.664 42.432 223.664 42.5947C223.664 42.7607 223.702 42.9121 223.777 43.0488C223.851 43.1855 223.964 43.2946 224.113 43.376C224.266 43.4541 224.454 43.4932 224.675 43.4932C224.952 43.4932 225.196 43.4346 225.407 43.3174C225.619 43.2002 225.787 43.057 225.91 42.8877C226.037 42.7184 226.106 42.554 226.115 42.3945L226.501 42.8291C226.478 42.9658 226.417 43.1172 226.316 43.2832C226.215 43.4492 226.08 43.6087 225.91 43.7617C225.744 43.9115 225.546 44.0368 225.315 44.1377C225.087 44.2354 224.83 44.2842 224.543 44.2842C224.185 44.2842 223.871 44.2142 223.601 44.0742C223.334 43.9342 223.126 43.7471 222.976 43.5127C222.829 43.2751 222.756 43.0098 222.756 42.7168C222.756 42.4336 222.811 42.1846 222.922 41.9697C223.033 41.7516 223.192 41.571 223.401 41.4277C223.609 41.2812 223.86 41.1706 224.153 41.0957C224.445 41.0208 224.773 40.9834 225.134 40.9834H226.184ZM234.836 41.1934V41.9258H232.043V41.1934H234.836ZM232.233 38.9033V44.1865H231.33V38.9033H232.233ZM235.568 38.9033V44.1865H234.66V38.9033H235.568ZM240.9 42.7559L243.336 38.9033H244.245V44.1865H243.336V40.334L240.9 44.1865H240.001V38.9033H240.9V42.7559ZM249.664 41.667H250.641L249.112 44.1865H248.136L249.664 41.667ZM250.421 38.9033H252.628V44.1865H251.725V39.6357H250.421C250.164 39.6357 249.954 39.6797 249.791 39.7676C249.628 39.8522 249.509 39.9629 249.435 40.0996C249.36 40.2363 249.322 40.3779 249.322 40.5244C249.322 40.6676 249.356 40.806 249.425 40.9395C249.493 41.0697 249.601 41.1771 249.747 41.2617C249.894 41.3464 250.082 41.3887 250.313 41.3887H251.969V42.1309H250.313C250.011 42.1309 249.742 42.0902 249.508 42.0088C249.273 41.9274 249.075 41.8151 248.912 41.6719C248.749 41.5254 248.626 41.3545 248.541 41.1592C248.456 40.9606 248.414 40.7458 248.414 40.5146C248.414 40.2835 248.458 40.0703 248.546 39.875C248.637 39.6797 248.767 39.5088 248.937 39.3623C249.109 39.2158 249.319 39.1035 249.566 39.0254C249.817 38.944 250.102 38.9033 250.421 38.9033Z" fill="white"/>
</svg>
